<svg width="1972" height="1032" viewBox="0 0 1972 1032" fill="none" xmlns="http://www.w3.org/2000/svg">
<g id="undraw_air_support_wy1q 1" clip-path="url(#clip0)">
<rect width="1972" height="1032" fill="#87CEEB"/>
<g id="cloud-3">
<path id="Vector" d="M1847.47 36.1125H1443.38C1431.09 36.1125 1421.14 42.5772 1421.14 50.5518V53.1178C1421.14 61.0924 1431.09 67.557 1443.38 67.557H1847.47C1859.76 67.557 1869.71 61.0924 1869.71 53.1178V50.5518C1869.71 42.5772 1859.76 36.1125 1847.47 36.1125Z" fill="#F2F2F2"/>
<path id="Vector_2" d="M1947.95 62.9034H1543.85C1531.57 62.9034 1521.61 69.3681 1521.61 77.3427V79.9087C1521.61 87.8833 1531.57 94.3479 1543.85 94.3479H1947.95C1960.23 94.3479 1970.19 87.8833 1970.19 79.9087V77.3427C1970.19 69.3681 1960.23 62.9034 1947.95 62.9034Z" fill="#F2F2F2"/>
<path id="Vector_3" d="M1777.48 86.2004H1373.39C1361.1 86.2004 1351.14 92.6651 1351.14 100.64V103.206C1351.14 111.18 1361.1 117.645 1373.39 117.645H1777.48C1789.76 117.645 1799.72 111.18 1799.72 103.206V100.64C1799.72 92.6651 1789.76 86.2004 1777.48 86.2004Z" fill="#F2F2F2"/>
</g>
<g id="cloud-2">
<path id="Vector_4" d="M1079.49 396.035H675.393C663.108 396.035 653.15 402.5 653.15 410.475V413.041C653.15 421.015 663.108 427.48 675.393 427.48H1079.49C1091.77 427.48 1101.73 421.015 1101.73 413.041V410.475C1101.73 402.5 1091.77 396.035 1079.49 396.035Z" fill="#F2F2F2"/>
<path id="Vector_5" d="M1179.96 422.826H775.869C763.584 422.826 753.626 429.291 753.626 437.265V439.832C753.626 447.806 763.584 454.271 775.869 454.271H1179.96C1192.25 454.271 1202.21 447.806 1202.21 439.832V437.265C1202.21 429.291 1192.25 422.826 1179.96 422.826Z" fill="#F2F2F2"/>
<path id="Vector_6" d="M1009.49 446.109H605.402C593.117 446.109 583.158 452.573 583.158 460.548V463.114C583.158 471.089 593.117 477.553 605.402 477.553H1009.49C1021.78 477.553 1031.74 471.089 1031.74 463.114V460.548C1031.74 452.573 1021.78 446.109 1009.49 446.109Z" fill="#F2F2F2"/>
</g>
<g id="Group" opacity="0.5">
<path id="Vector_7" opacity="0.5" d="M1903.89 994.727C1893.12 994.727 1645.49 1064.62 1358.4 880.576C1202.5 780.647 1049.78 770.006 942.764 781.154C876.994 787.997 816.94 808.844 769.371 839.042C731.115 863.426 638.522 896.654 421.58 887.578C87.8364 873.603 -0.0883789 1028.52 -0.0883789 1028.52H1971.91C1971.91 1028.52 1914.58 994.727 1903.89 994.727Z" fill="url(#paint0_linear)"/>
</g>
<path id="Vector_8" d="M0 1029.01C0 1029.01 87.9249 874.095 421.669 888.07C638.611 897.189 731.226 863.917 769.371 839.548C816.85 809.292 876.881 788.503 942.585 781.66C1049.6 770.512 1202.34 781.153 1358.22 881.082C1645.31 1065.12 1892.94 995.233 1903.71 995.233C1914.47 995.233 1971.89 1029.01 1971.89 1029.01H0Z" fill="#7EC850"/>
<g id="cloud-1">
<path id="Vector_9" d="M630.883 179.374H226.791C214.506 179.374 204.547 185.839 204.547 193.814V196.38C204.547 204.354 214.506 210.819 226.791 210.819H630.883C643.168 210.819 653.127 204.354 653.127 196.38V193.814C653.127 185.839 643.168 179.374 630.883 179.374Z" fill="#F2F2F2"/>
<path id="Vector_10" d="M731.382 206.165H327.289C315.005 206.165 305.046 212.63 305.046 220.604V223.17C305.046 231.145 315.005 237.61 327.289 237.61H731.382C743.667 237.61 753.625 231.145 753.625 223.17V220.604C753.625 212.63 743.667 206.165 731.382 206.165Z" fill="#F2F2F2"/>
<path id="Vector_11" d="M560.914 229.462H156.822C144.537 229.462 134.578 235.927 134.578 243.901V246.467C134.578 254.442 144.537 260.907 156.822 260.907H560.914C573.199 260.907 583.158 254.442 583.158 246.467V243.901C583.158 235.927 573.199 229.462 560.914 229.462Z" fill="#F2F2F2"/>
</g>
<g id="sun">
<path id="Vector_12" d="M398.491 238C462.285 238 514 187.594 514 125.416C514 63.237 462.285 12.8313 398.491 12.8313C334.697 12.8313 282.982 63.237 282.982 125.416C282.982 187.594 334.697 238 398.491 238Z" fill="#F5B027"/>
</g>
<g id="house">
<path id="Vector_13" d="M460.52 886.215H336.413V956.892H460.52V886.215Z" fill="#CA7070"/>
<path id="Vector_14" d="M325.589 883.38L394.943 830.218C395.445 829.832 396.042 829.525 396.698 829.316C397.355 829.108 398.059 829 398.77 829C399.482 829 400.186 829.108 400.843 829.316C401.499 829.525 402.096 829.832 402.598 830.218L471.4 882.957C472.156 883.535 472.673 884.273 472.883 885.077C473.093 885.88 472.987 886.713 472.58 887.471C472.172 888.228 471.481 888.876 470.593 889.333C469.705 889.789 468.661 890.034 467.592 890.035L329.476 890.459C328.4 890.469 327.345 890.234 326.445 889.782C325.545 889.33 324.841 888.683 324.423 887.923C324.006 887.163 323.894 886.324 324.102 885.515C324.309 884.706 324.827 883.963 325.589 883.38Z" fill="#CA7070"/>
<path id="Vector_15" d="M396.857 925.049H399.343C403.058 925.049 406.621 926.18 409.248 928.194C411.876 930.208 413.352 932.939 413.352 935.787V956.962H382.848V935.787C382.848 932.939 384.324 930.208 386.951 928.194C389.578 926.18 393.141 925.049 396.857 925.049Z" fill="white"/>
<path id="Vector_16" d="M398.802 849.024C403.019 849.024 406.438 846.404 406.438 843.171C406.438 839.939 403.019 837.318 398.802 837.318C394.585 837.318 391.166 839.939 391.166 843.171C391.166 846.404 394.585 849.024 398.802 849.024Z" fill="white"/>
<path id="Vector_17" d="M375.244 895.245H346.121V912.245H375.244V895.245Z" fill="white"/>
<path id="Vector_18" d="M452.884 895.245H423.762V912.245H452.884V895.245Z" fill="white"/>
</g>
<g id="Group_2" opacity="0.2">
<path id="Vector_19" opacity="0.2" d="M1010.57 784.518C1010.28 784.474 1010.57 784.518 1010.57 784.518V784.518Z" fill="url(#paint1_linear)"/>
</g>
<path id="Vector_20" opacity="0.2" d="M1030.06 830.17C1029.88 830.053 1029.74 829.912 1029.65 829.757C1029.57 829.602 1029.53 829.436 1029.55 829.271H1029.93C1029.91 829.436 1029.95 829.602 1030.03 829.757C1030.12 829.912 1030.26 830.053 1030.44 830.17C1031.16 830.706 1032.68 831.358 1031.94 831.619H1031.56C1032.23 831.358 1030.78 830.706 1030.06 830.17Z" fill="white"/>
<g id="ballon">
<path id="Vector_21" d="M1573.56 627.279L1557.11 540.542L1609.22 538.141V627.279H1644.88L1680.54 531.488" stroke="black" stroke-miterlimit="10"/>
<path id="Vector_22" d="M1633.94 618.209H1584.51C1558.77 618.209 1537.91 637.9 1537.91 662.19V670.019C1537.91 694.309 1558.77 714 1584.51 714H1633.94C1659.67 714 1680.54 694.309 1680.54 670.019V662.19C1680.54 637.9 1659.67 618.209 1633.94 618.209Z" fill="#E35C45"/>
<path id="Vector_23" opacity="0.05" d="M1631.17 618.209H1590.04C1576.59 618.247 1563.71 623.305 1554.2 632.279C1544.69 641.253 1539.33 653.413 1539.29 666.104C1539.29 667.2 1539.29 668.263 1539.43 669.326C1540.33 657.228 1546.05 645.9 1555.44 637.617C1564.83 629.333 1577.19 624.708 1590.04 624.669H1631.17C1644.02 624.708 1656.38 629.333 1665.77 637.617C1675.16 645.9 1680.88 657.228 1681.78 669.326C1681.78 668.263 1681.92 667.184 1681.92 666.104C1681.88 653.413 1676.52 641.253 1667.01 632.279C1657.5 623.305 1644.62 618.247 1631.17 618.209Z" fill="black"/>
<path id="Vector_24" d="M1815.91 358.98C1815.91 464.421 1722.6 549.886 1623.22 549.886C1523.84 549.886 1422.01 464.421 1422.01 358.98C1422.01 253.539 1523.88 168.139 1623.24 168.139C1722.6 168.139 1815.91 253.523 1815.91 358.98Z" fill="#E35C45"/>
<path id="Vector_25" d="M1637.06 556.587H1592.36V571.328H1637.06V556.587Z" fill="#274255"/>
<g id="Group_3" opacity="0.2">
<path id="Vector_26" opacity="0.2" d="M1623.24 167.414C1620.86 167.414 1618.51 167.414 1616.14 167.575C1712.8 171.522 1801.73 255.392 1801.73 358.319C1801.73 461.247 1712.8 545.117 1616.2 549.064C1618.58 549.161 1620.95 549.225 1623.3 549.225C1722.66 549.225 1816 463.76 1816 358.319C1816 252.878 1722.6 167.414 1623.24 167.414Z" fill="black"/>
</g>
<g id="Group_4" opacity="0.2">
<path id="Vector_27" opacity="0.2" d="M1433.39 358.98C1433.39 255.054 1532.39 170.491 1630.34 168.139C1628.92 168.139 1627.5 168.139 1626.09 168.139C1526.73 168.139 1424.87 253.604 1424.87 359.045C1424.87 464.486 1526.71 549.95 1626.07 549.95C1627.49 549.95 1628.9 549.95 1630.32 549.95C1532.34 547.437 1433.39 462.955 1433.39 358.98Z" fill="white"/>
</g>
<path id="Vector_28" d="M1681.08 523.094H1552.62V562.613H1681.08V523.094Z" fill="#274255"/>
<g id="Vector_29" style="mix-blend-mode:difference">
<path d="M1552.62 181.977C1552.62 181.977 1400.04 346.591 1552.62 535.982L1603.01 535.821C1603.01 535.821 1463.91 379.359 1596.63 170.12L1571.82 175.453L1552.62 181.977Z" fill="white"/>
</g>
<g id="Vector_30" style="mix-blend-mode:difference">
<path d="M1685.33 179.416C1685.33 179.416 1837.92 346.543 1685.33 535.934L1634.95 535.773C1634.95 535.773 1774.04 377.893 1641.33 168.703L1666.17 173.391L1685.33 179.416Z" fill="white"/>
</g>
</g>
</g>
<defs>
<linearGradient id="paint0_linear" x1="986.001" y1="1028.51" x2="986.001" y2="777.617" gradientUnits="userSpaceOnUse">
<stop stop-color="#808080" stop-opacity="0.25"/>
<stop offset="0.54" stop-color="#808080" stop-opacity="0.12"/>
<stop offset="1" stop-color="#808080" stop-opacity="0.1"/>
</linearGradient>
<linearGradient id="paint1_linear" x1="5649.19" y1="796.79" x2="5649.19" y2="796.789" gradientUnits="userSpaceOnUse">
<stop stop-color="#808080" stop-opacity="0.25"/>
<stop offset="0.54" stop-color="#808080" stop-opacity="0.12"/>
<stop offset="1" stop-color="#808080" stop-opacity="0.1"/>
</linearGradient>
<clipPath id="clip0">
<rect width="1972" height="1032" fill="white"/>
</clipPath>
</defs>
</svg>
