<svg width="2000" height="1126" viewBox="0 0 2000 1126" fill="none" xmlns="http://www.w3.org/2000/svg">
<g id="undraw air support wy1q 1">
<path id="Vector" d="M2000 0H0V1126H2000V0Z" fill="#87CEEB"/>
<g id="cloud 3">
<path id="Vector_2" d="M1873.7 39.402H1463.87C1451.41 39.402 1441.31 46.4555 1441.31 55.1564V57.9562C1441.31 66.6571 1451.41 73.7106 1463.87 73.7106H1873.7C1886.16 73.7106 1896.26 66.6571 1896.26 57.9562V55.1564C1896.26 46.4555 1886.16 39.402 1873.7 39.402Z" fill="#F2F2F2"/>
<path id="Vector 2" d="M1975.61 68.6331H1565.78C1553.32 68.6331 1543.22 75.6866 1543.22 84.3875V87.1872C1543.22 95.8882 1553.32 102.942 1565.78 102.942H1975.61C1988.07 102.942 1998.17 95.8882 1998.17 87.1872V84.3875C1998.17 75.6866 1988.07 68.6331 1975.61 68.6331Z" fill="#F2F2F2"/>
<path id="Vector 3" d="M1802.72 94.0522H1392.89C1380.43 94.0522 1370.33 101.106 1370.33 109.807V112.606C1370.33 121.307 1380.43 128.361 1392.89 128.361H1802.72C1815.18 128.361 1825.28 121.307 1825.28 112.606V109.807C1825.28 101.106 1815.18 94.0522 1802.72 94.0522Z" fill="#F2F2F2"/>
</g>
<g id="cloud 2">
<path id="Vector 4" d="M1094.81 432.108H684.983C672.524 432.108 662.424 439.162 662.424 447.863V450.663C662.424 459.363 672.524 466.417 684.983 466.417H1094.81C1107.27 466.417 1117.37 459.363 1117.37 450.663V447.863C1117.37 439.162 1107.27 432.108 1094.81 432.108Z" fill="#F2F2F2"/>
<path id="Vector 5" d="M1196.72 461.339H786.886C774.426 461.339 764.326 468.393 764.326 477.094V479.894C764.326 488.595 774.426 495.648 786.886 495.648H1196.72C1209.18 495.648 1219.28 488.595 1219.28 479.894V477.094C1219.28 468.393 1209.18 461.339 1196.72 461.339Z" fill="#F2F2F2"/>
<path id="Vector 6" d="M1023.83 486.743H613.998C601.538 486.743 591.438 493.796 591.438 502.497V505.297C591.438 513.998 601.538 521.051 613.998 521.051H1023.83C1036.29 521.051 1046.39 513.998 1046.39 505.297V502.497C1046.39 493.796 1036.29 486.743 1023.83 486.743Z" fill="#F2F2F2"/>
</g>
<g id="Group" opacity="0.5">
<path id="Vector 7" opacity="0.5" d="M1930.92 1085.33C1920 1085.33 1668.86 1161.59 1377.69 960.784C1219.57 851.752 1064.69 840.142 956.15 852.306C889.446 859.772 828.54 882.518 780.295 915.466C741.496 942.071 647.589 978.326 427.566 968.424C89.0836 953.175 -0.0895996 1122.2 -0.0895996 1122.2H1999.91C1999.91 1122.2 1941.77 1085.33 1930.92 1085.33Z" fill="url(#paint0_linear)"/>
</g>
<path id="Vector 8" d="M0 1122.74C0 1122.74 89.1733 953.712 427.656 968.96C647.678 978.909 741.608 942.608 780.295 916.018C828.449 883.006 889.332 860.324 955.968 852.858C1064.51 840.694 1219.41 852.304 1377.51 961.336C1668.68 1162.14 1919.82 1085.88 1930.74 1085.88C1941.65 1085.88 1999.89 1122.74 1999.89 1122.74H0Z" fill="#7EC850"/>
<g id="cloud 1">
<path id="Vector 9" d="M639.841 195.713H230.011C217.552 195.713 207.452 202.766 207.452 211.467V214.267C207.452 222.968 217.552 230.021 230.011 230.021H639.841C652.301 230.021 662.401 222.968 662.401 214.267V211.467C662.401 202.766 652.301 195.713 639.841 195.713Z" fill="#F2F2F2"/>
<path id="Vector 10" d="M741.767 224.944H331.937C319.477 224.944 309.377 231.997 309.377 240.698V243.498C309.377 252.199 319.477 259.252 331.937 259.252H741.767C754.226 259.252 764.326 252.199 764.326 243.498V240.698C764.326 231.997 754.226 224.944 741.767 224.944Z" fill="#F2F2F2"/>
<path id="Vector 11" d="M568.879 250.363H159.049C146.589 250.363 136.489 257.416 136.489 266.117V268.917C136.489 277.618 146.589 284.672 159.049 284.672H568.879C581.338 284.672 591.438 277.618 591.438 268.917V266.117C591.438 257.416 581.338 250.363 568.879 250.363Z" fill="#F2F2F2"/>
</g>
<g id="sun">
<path id="Vector 12" d="M417.5 268C489.573 268 548 211.14 548 141C548 70.8598 489.573 14 417.5 14C345.427 14 287 70.8598 287 141C287 211.14 345.427 268 417.5 268Z" fill="#F5B027"/>
</g>
<path id="Vector 13" d="M507.089 934.242H364.621V1008.16H507.089V934.242Z" fill="#CA7070"/>
<path id="Vector 14" d="M352.195 931.278L431.81 875.678C432.386 875.275 433.071 874.954 433.825 874.736C434.579 874.517 435.387 874.405 436.204 874.405C437.02 874.405 437.828 874.517 438.582 874.736C439.336 874.954 440.021 875.275 440.598 875.678L519.579 930.835C520.447 931.44 521.04 932.212 521.281 933.052C521.522 933.892 521.401 934.764 520.933 935.556C520.465 936.348 519.672 937.026 518.653 937.503C517.633 937.98 516.434 938.236 515.207 938.238L356.657 938.68C355.422 938.692 354.21 938.445 353.177 937.973C352.144 937.5 351.336 936.823 350.857 936.028C350.378 935.233 350.249 934.357 350.487 933.51C350.726 932.664 351.32 931.887 352.195 931.278Z" fill="#CA7070"/>
<path id="Vector 15" opacity="0.05" d="M352.208 931.236L431.823 875.637C432.4 875.234 433.085 874.913 433.839 874.695C434.593 874.476 435.401 874.364 436.217 874.364C437.034 874.364 437.842 874.476 438.596 874.695C439.35 874.913 440.035 875.234 440.612 875.637L519.592 930.794C520.461 931.399 521.054 932.17 521.295 933.011C521.536 933.851 521.415 934.722 520.947 935.515C520.479 936.307 519.686 936.984 518.666 937.462C517.647 937.939 516.448 938.195 515.221 938.196L356.67 938.639C355.436 938.65 354.224 938.404 353.191 937.931C352.158 937.459 351.35 936.782 350.871 935.987C350.391 935.192 350.263 934.315 350.501 933.469C350.739 932.623 351.334 931.845 352.208 931.236Z" fill="black"/>
<path id="Vector 16" d="M434.007 974.856H436.861C441.126 974.856 445.216 976.039 448.232 978.145C451.248 980.251 452.942 983.107 452.942 986.086V1008.23H417.925V986.086C417.925 983.107 419.619 980.251 422.635 978.145C425.651 976.039 429.742 974.856 434.007 974.856Z" fill="white"/>
<path id="Vector 17" d="M436.24 895.346C441.081 895.346 445.006 892.605 445.006 889.225C445.006 885.844 441.081 883.103 436.24 883.103C431.399 883.103 427.475 885.844 427.475 889.225C427.475 892.605 431.399 895.346 436.24 895.346Z" fill="white"/>
<path id="Vector 18" d="M409.196 943.685H375.764V961.464H409.196V943.685Z" fill="white"/>
<path id="Vector 20" d="M498.324 943.685H464.892V961.464H498.324V943.685Z" fill="white"/>
<g id="Group 2" opacity="0.2">
<path id="Vector 22" opacity="0.2" d="M1024.91 855.975C1024.62 855.929 1024.91 855.975 1024.91 855.975V855.975Z" fill="url(#paint1_linear)"/>
</g>
<path id="Vector 23" opacity="0.2" d="M1044.69 905.786C1044.51 905.658 1044.36 905.505 1044.27 905.335C1044.18 905.166 1044.15 904.985 1044.17 904.805H1044.55C1044.53 904.985 1044.57 905.166 1044.66 905.335C1044.75 905.505 1044.89 905.658 1045.07 905.786C1045.8 906.371 1047.34 907.083 1046.59 907.367H1046.21C1046.89 907.083 1045.41 906.371 1044.69 905.786Z" fill="white"/>
<g id="ballon">
<path id="Vector 24" d="M1616.76 674.289L1597.81 581.561L1657.83 578.995V674.289H1698.9L1739.97 571.882" stroke="black" stroke-miterlimit="10"/>
<path id="Vector 25" d="M1686.3 664.593H1629.36C1599.72 664.593 1575.69 685.644 1575.69 711.611V719.982C1575.69 745.949 1599.72 767 1629.36 767H1686.3C1715.94 767 1739.97 745.949 1739.97 719.982V711.611C1739.97 685.644 1715.94 664.593 1686.3 664.593Z" fill="#E35C45"/>
<path id="Vector 26" opacity="0.05" d="M1683.12 664.593H1635.73C1620.25 664.634 1605.41 670.041 1594.46 679.635C1583.5 689.229 1577.33 702.229 1577.28 715.796C1577.28 716.968 1577.28 718.104 1577.44 719.241C1578.48 706.307 1585.07 694.196 1595.88 685.341C1606.7 676.486 1620.93 671.541 1635.73 671.499H1683.12C1697.92 671.541 1712.15 676.486 1722.97 685.341C1733.78 694.196 1740.37 706.307 1741.41 719.241C1741.41 718.104 1741.57 716.95 1741.57 715.796C1741.52 702.229 1735.35 689.229 1724.4 679.635C1713.44 670.041 1698.6 664.634 1683.12 664.593Z" fill="black"/>
<path id="Vector 27" d="M1895.9 387.46C1895.9 500.184 1788.42 591.551 1673.95 591.551C1559.49 591.551 1442.2 500.184 1442.2 387.46C1442.2 274.737 1559.53 183.438 1673.97 183.438C1788.42 183.438 1895.9 274.719 1895.9 387.46Z" fill="#E35C45"/>
<path id="Vector 28" d="M1689.9 598.715H1638.41V614.474H1689.9V598.715Z" fill="#274255"/>
<g id="Group 3" opacity="0.2">
<path id="Vector 29" opacity="0.2" d="M1673.97 182.663C1671.24 182.663 1668.53 182.663 1665.8 182.835C1777.13 187.055 1879.56 276.717 1879.56 386.754C1879.56 496.791 1777.13 586.453 1665.87 590.672C1668.61 590.776 1671.34 590.844 1674.05 590.844C1788.5 590.844 1896 499.477 1896 386.754C1896 274.03 1788.42 182.663 1673.97 182.663Z" fill="black"/>
</g>
<g id="Group 4" opacity="0.2">
<path id="Vector 30" opacity="0.2" d="M1455.31 387.46C1455.31 276.356 1569.34 185.953 1682.15 183.438C1680.52 183.438 1678.89 183.438 1677.26 183.438C1562.81 183.438 1445.5 274.805 1445.5 387.529C1445.5 500.253 1562.79 591.62 1677.24 591.62C1678.87 591.62 1680.5 591.62 1682.13 591.62C1569.28 588.933 1455.31 498.616 1455.31 387.46Z" fill="white"/>
</g>
<path id="Vector 31" d="M1740.6 562.909H1592.64V605.157H1740.6V562.909Z" fill="#274255"/>
<g id="Vector 32" style="mix-blend-mode:difference">
<g id="Vector_3" style="mix-blend-mode:difference">
<path d="M1592.64 198.232C1592.64 198.232 1416.89 374.215 1592.64 576.687L1650.68 576.515C1650.68 576.515 1490.46 409.247 1643.32 185.556L1614.76 191.257L1592.64 198.232Z" fill="white"/>
</g>
</g>
<g id="Vector 33" style="mix-blend-mode:difference">
<g id="Vector_4" style="mix-blend-mode:difference">
<path d="M1745.5 195.494C1745.5 195.494 1921.24 374.164 1745.5 576.636L1687.46 576.464C1687.46 576.464 1847.67 407.68 1694.81 184.041L1723.42 189.053L1745.5 195.494Z" fill="white"/>
</g>
</g>
</g>
</g>
<defs>
<linearGradient id="paint0_linear" x1="1000" y1="1122.19" x2="1000" y2="848.446" gradientUnits="userSpaceOnUse">
<stop stop-color="#808080" stop-opacity="0.25"/>
<stop offset="0.54" stop-color="#808080" stop-opacity="0.12"/>
<stop offset="1" stop-color="#808080" stop-opacity="0.1"/>
</linearGradient>
<linearGradient id="paint1_linear" x1="5707.46" y1="869.099" x2="5707.46" y2="869.098" gradientUnits="userSpaceOnUse">
<stop stop-color="#808080" stop-opacity="0.25"/>
<stop offset="0.54" stop-color="#808080" stop-opacity="0.12"/>
<stop offset="1" stop-color="#808080" stop-opacity="0.1"/>
</linearGradient>
</defs>
</svg>
